<?xml version="1.0" encoding="UTF-8"?>
<svg version="1.1" xmlns="http://www.w3.org/2000/svg" width="1024" height="1024">
<path d="M0 0 C337.92 0 675.84 0 1024 0 C1024 337.92 1024 675.84 1024 1024 C686.08 1024 348.16 1024 0 1024 C0 686.08 0 348.16 0 0 Z " fill="#020201" transform="translate(0,0)"/>
<path d="M0 0 C1.65586945 2.19662663 3.16307726 4.37561177 4.6484375 6.68359375 C5.32190216 7.70757515 5.32190216 7.70757515 6.00897217 8.75224304 C6.97125065 10.2163704 7.93008047 11.68276901 8.88580322 13.15118408 C11.36883676 16.96330562 13.8805455 20.75643572 16.390625 24.55078125 C17.1272789 25.66601166 17.1272789 25.66601166 17.8788147 26.80377197 C26.51338648 39.85057407 35.81942891 52.28605128 45.70556641 64.40576172 C47.49284028 66.60698737 49.24422941 68.83611048 51 71.0625 C59.47296106 81.62755021 68.46074975 91.6740888 77.74609375 101.52734375 C80.4629547 104.41366527 83.11900447 107.3474098 85.75 110.3125 C92.05428733 117.35365208 98.69490892 124.01689897 105.87890625 130.16015625 C108.42541058 132.36900254 110.8960016 134.65320554 113.375 136.9375 C127.93571474 150.17091149 145.61591583 166.11589903 163.71484375 174.21484375 C167.04979021 176.82009252 167.07178426 179.84339659 167.625 183.8125 C171.00683857 203.15592604 179.16717618 222.55190959 188 240 C188.50273437 241.07507813 189.00546875 242.15015625 189.5234375 243.2578125 C202.13239625 269.76737943 220.18447635 294.24567316 239.99609375 315.80859375 C242.59450299 318.650129 245.09439456 321.57190093 247.58984375 324.50390625 C248.94913951 326.11795718 248.94913951 326.11795718 251 327 C250.95359375 326.29617188 250.9071875 325.59234375 250.859375 324.8671875 C250.04277285 302.52728594 263.1795722 281.68037566 277.5546875 265.45703125 C279.76379199 263.2300151 282.14074972 261.22875575 284.58203125 259.26171875 C286.1369442 258.03520707 286.1369442 258.03520707 287 256 C286.36835938 255.97421875 285.73671875 255.9484375 285.0859375 255.921875 C256.00611029 254.07819719 230.0910712 235.93219824 211 215 C207.81589518 211.11905435 204.86538427 207.12069547 202 203 C201.39542969 202.14019531 200.79085937 201.28039062 200.16796875 200.39453125 C187.54786381 181.56408121 177.95477505 156.79525427 177 134 C176.9484375 132.96230469 176.896875 131.92460937 176.84375 130.85546875 C176.46581178 117.07647107 176.46581178 117.07647107 180 113 C184.11545616 110.40466729 188.45673442 108.70799458 193 107 C194.59908203 106.35417969 194.59908203 106.35417969 196.23046875 105.6953125 C206.51788506 101.73766847 217.22480667 99.24231129 228 97 C228.85537354 96.80946045 229.71074707 96.6189209 230.59204102 96.42260742 C239.65651545 94.62636958 248.71202519 94.66235631 257.91577148 94.68432617 C260.6649592 94.68747419 263.41305478 94.66399632 266.16210938 94.63867188 C281.26814864 94.5830763 295.44890003 96.37942642 309.875 101.0625 C310.7920874 101.35922607 311.7091748 101.65595215 312.65405273 101.96166992 C330.48107989 108.00126832 345.92581369 117.70631507 359.31640625 130.91796875 C360.91541266 132.17090581 360.91541266 132.17090581 362.7734375 131.94140625 C366.07313468 130.54627113 369.03671329 128.64806968 372.0625 126.75 C384.7088603 119.04234753 397.92951859 114.45603079 412 110 C412.81863525 109.73566162 413.63727051 109.47132324 414.48071289 109.19897461 C442.82419606 100.30706662 475.06028099 100.75819826 504.171875 105.34375 C505.78031784 105.56925188 507.38967036 105.78839207 509 106 C509.72533936 106.11214844 510.45067871 106.22429687 511.19799805 106.33984375 C518.76823081 107.00662978 524.14494808 102.94214659 530.3125 99 C531.36373047 98.35160156 532.41496094 97.70320313 533.49804688 97.03515625 C536.68709722 95.05547534 539.84738332 93.03714629 543 91 C544.09747559 90.29302979 545.19495117 89.58605957 546.32568359 88.85766602 C550.97057333 85.82040582 555.21648472 83.02889721 559 78.9375 C563.60755088 74.06117531 569.07198329 71.04455206 575 68 C575.70125 67.63648438 576.4025 67.27296875 577.125 66.8984375 C587.62830929 62.21571211 599.68108692 65.28958232 610 69 C638.09190686 82.09598557 658.40528607 110.59779118 671 138 C671.495 139.07378906 671.99 140.14757812 672.5 141.25390625 C679.28213054 156.73573401 681.97777332 173.98614539 677.03515625 190.4921875 C673.81102973 198.30309024 667.21839536 204.96420346 659.9453125 209.1953125 C658 210 658 210 655 210 C654.78085937 209.29875 654.56171875 208.5975 654.3359375 207.875 C651.3082095 198.81643168 647.00876245 192.48310527 640 186 C639.113125 185.154375 638.22625 184.30875 637.3125 183.4375 C628.04659556 175.84327935 614.78871098 174.04892894 603.23974609 174.76611328 C587.83642623 176.37461344 573.79685272 183.59867261 560.9375 191.8125 C547.80853677 200.0898114 533.13262821 207.34477579 518 211 C517.40356689 211.17289551 516.80713379 211.34579102 516.19262695 211.52392578 C511.51728068 212.53906054 506.63916883 212.22794366 501.875 212.25 C500.23917969 212.2809375 500.23917969 212.2809375 498.5703125 212.3125 C491.47584323 212.34644483 485.67052454 211.33843796 479 209 C477.67048902 208.65173367 476.33816161 208.31338857 475 208 C472.29174315 211.61100913 471.52715095 214.47263583 471.70703125 219.00390625 C472.16165317 222.10139696 473.3199748 224.38662746 475 227 C475.99 227.66 476.98 228.32 478 229 C478 228.34 478 227.68 478 227 C485.54295416 227.91035654 485.54295416 227.91035654 488.62890625 228.515625 C518.54116501 232.81356253 544.46277615 221.32560294 569.43188477 206.10644531 C585.73677476 196.20431205 603.74896848 188.9457595 623.0625 193.125 C633.99265395 196.17527552 643.35225535 202.83714166 649.56640625 212.4140625 C655.19896241 223.00663081 656.48616146 233.38752666 656.3125 245.25 C656.29123047 247.18903198 656.29123047 247.18903198 656.26953125 249.16723633 C655.86944418 273.92731235 649.02937464 296.84206569 638 319 C637.61585938 319.77923828 637.23171875 320.55847656 636.8359375 321.36132812 C631.31848409 332.45852878 625.16487164 342.89165616 618 353 C617.32195313 353.96164062 616.64390625 354.92328125 615.9453125 355.9140625 C613.99394604 358.63343664 612.00638694 361.32099572 610 364 C609.23042969 365.03769531 608.46085938 366.07539062 607.66796875 367.14453125 C601.21605071 375.7530757 594.37328295 384.33153414 586.23046875 391.40625 C583.36624447 394.73697666 583.34822317 396.64268379 583.125 401 C582.45508265 409.54071695 580.59732419 417.68930561 578.5625 426 C578.26166504 427.24007813 577.96083008 428.48015625 577.65087891 429.7578125 C574.84640006 441.06732763 571.1314813 451.36130939 566.375 462 C565.84011963 463.19681396 565.30523926 464.39362793 564.75415039 465.62670898 C560.53787348 474.97135021 556.10794806 484.1106199 551 493 C550.58427734 493.72445313 550.16855469 494.44890625 549.74023438 495.1953125 C543.63709035 505.7198453 536.89353584 515.55850621 529.42578125 525.15673828 C528.06732956 526.91295579 526.73292399 528.68454931 525.40625 530.46484375 C520.44237816 537.09372556 515.16303202 543.27936592 509.50390625 549.3125 C507.52251034 551.43917767 505.62184988 553.59117431 503.75 555.8125 C501.3217921 558.56626813 498.83156763 561.22562166 496.23828125 563.82421875 C495.55475586 564.50959717 494.87123047 565.19497559 494.16699219 565.90112305 C491.11856293 568.94141845 488.06350663 571.97489798 485 575 C481.03808003 573.63721192 478.40155948 571.86505012 475.25 569.125 C463.18095667 559.05951327 449.91812094 550.54764523 436.875 541.8125 C436.25064056 541.39302094 435.62628113 540.97354187 434.98300171 540.54135132 C422.63739828 532.25670833 409.96863428 524.57686267 397.015625 517.27734375 C393.97397896 515.55805099 390.94664666 513.81520716 387.921875 512.06640625 C350.40098896 490.47226874 310.47329755 472.48266831 269.87890625 457.4765625 C269.16283203 457.21069336 268.44675781 456.94482422 267.70898438 456.67089844 C266.32484618 456.15767158 264.9395095 455.64765993 263.55273438 455.14160156 C259.55969426 453.66397403 255.77314313 451.97113196 252 450 C252 449.34 252 448.68 252 448 C252.53625 447.8040625 253.0725 447.608125 253.625 447.40625 C262.04811628 444.19216616 269.9941007 440.11872615 278 436 C278.70108887 435.64244629 279.40217773 435.28489258 280.12451172 434.91650391 C290.77388865 429.47294438 300.96845813 423.50928398 311 417 C312.07121094 416.3090625 313.14242188 415.618125 314.24609375 414.90625 C321.39178403 410.22298875 328.2202278 405.19301701 335 400 C334.00742187 400.53109375 333.01484375 401.0621875 331.9921875 401.609375 C307.48327164 414.45590907 280.70837337 416.56188921 254 409 C247.74886722 406.85094481 241.87530934 404.00607378 236 401 C234.82953125 400.43152344 233.6590625 399.86304688 232.453125 399.27734375 C222.03397489 394.0054532 212.89481685 387.50287151 205.375 378.5625 C199.31171449 372.14786517 191.42785399 371.95173574 183.03955078 371.34375 C180.73482251 370.95530645 179.03213975 370.13283655 177 369 C183.68613564 384.65740624 194.4369167 397.47644605 210.26953125 404.4375 C212.82992759 405.38409069 215.37666145 406.24822162 218 407 C209.94123522 413.9187444 196.17293831 415.08549379 186 417 C184.94554687 417.20753906 183.89109375 417.41507813 182.8046875 417.62890625 C149.60628478 423.13629788 114.93567484 418.40830157 87 399 C78.01729769 392.49952186 67.86385918 384.81137521 64 374 C63.96768099 372.00026115 63.96446828 369.99968435 64 368 C65.16756836 367.98018066 66.33513672 367.96036133 67.53808594 367.93994141 C71.97413603 367.86242591 76.40991823 367.7739686 80.84570312 367.68261719 C82.74603899 367.64491718 84.6464321 367.609976 86.546875 367.578125 C105.40873129 367.25843252 123.80570798 365.60424149 142.39526367 362.39550781 C144.72524062 361.99348814 147.05674767 361.60148938 149.38867188 361.2109375 C150.90897583 360.95384339 152.42916136 360.69604789 153.94921875 360.4375 C154.66985504 360.31496857 155.39049133 360.19243713 156.13296509 360.06619263 C159.91546107 359.4088219 163.62876443 358.62965885 167.34765625 357.6796875 C171.28508984 356.94694585 171.65972052 357.03808018 174.75 359.125 C175.71486328 359.83269531 175.71486328 359.83269531 176.69921875 360.5546875 C189.94310401 368.87427586 208.53932746 368.27382233 223.31640625 365.6328125 C226.28380167 364.93307733 229.12315573 364.00541694 232 363 C230.9584375 362.92523437 229.916875 362.85046875 228.84375 362.7734375 C206.33728634 360.84249576 185.2032599 350.92500839 170 334 C166.97513945 330.20240196 164.17487756 326.34975513 162 322 C159.45850222 321.41612487 159.45850222 321.41612487 156.4375 321.0625 C151.23439964 320.28545395 146.83420673 319.04524131 142 317 C145.410646 331.58536421 151.48263621 341.82271018 163.0625 351.5 C164.031875 352.325 165.00125 353.15 166 354 C166 354.66 166 355.32 166 356 C163.73060504 356.48695519 161.45982362 356.96455752 159.1875 357.4375 C157.92292969 357.70433594 156.65835938 357.97117187 155.35546875 358.24609375 C112.25628418 366.27211523 62.65565338 358.37790146 26.0390625 334.03125 C19.5947617 329.48233179 13.73344332 324.40835118 8 319 C7.37351563 318.42636719 6.74703125 317.85273437 6.1015625 317.26171875 C0.97501219 312.40193463 -3.00086497 306.80001402 -7 301 C-7.71349609 300.01386719 -7.71349609 300.01386719 -8.44140625 299.0078125 C-13.80563142 291.17167166 -17.60759075 281.54274891 -17 272 C-15.4585058 270.4585058 -14.01556186 270.79353685 -11.875 270.75 C-11.12992188 270.72421875 -10.38484375 270.6984375 -9.6171875 270.671875 C-6.08364398 271.11488643 -3.25291679 272.5685773 0 274 C2.40433489 274.6903276 4.82200189 275.33566643 7.25 275.9375 C11.60886202 277.04861375 15.86618006 278.24121469 20.0625 279.875 C32.16441578 284.47227431 45.06709355 287.40521292 57.66015625 290.359375 C60 291 60 291 62.2265625 291.9387207 C67.91299667 294.11468279 73.99655069 295.14428578 79.9375 296.4375 C81.00455673 296.6713591 81.00455673 296.6713591 82.09317017 296.90994263 C102.85511672 301.52862039 102.85511672 301.52862039 124 303 C123.12601562 302.84966309 123.12601562 302.84966309 122.234375 302.69628906 C110.01521363 300.57810897 97.96804967 298.26401355 86 295 C85.35885254 294.8345166 84.71770508 294.6690332 84.05712891 294.49853516 C36.04468083 282.09482484 -7.95076597 252.51234993 -34 210 C-43.10735815 194.4101118 -47.35200098 176.91123347 -47.375 158.9375 C-47.41173828 157.4205957 -47.41173828 157.4205957 -47.44921875 155.87304688 C-47.47815063 148.38451286 -46.41609601 141.19493376 -41.546875 135.21557617 C-40 134 -40 134 -37.0859375 134.109375 C-33.81604352 135.05309124 -32.18699032 136.04872312 -29.625 138.25 C-28.76648438 138.97058594 -27.90796875 139.69117188 -27.0234375 140.43359375 C-26.02570313 141.28050781 -25.02796875 142.12742187 -24 143 C-21.42616113 145.11587789 -18.83802393 147.21401051 -16.25 149.3125 C-15.56244629 149.87155029 -14.87489258 150.43060059 -14.16650391 151.0065918 C-2.32477772 160.62643693 9.74809477 169.90912621 22 179 C23.45019531 180.08087891 23.45019531 180.08087891 24.9296875 181.18359375 C49.18516965 199.06931279 76.91730837 219.14469325 106 228 C104.43765625 227.21689453 104.43765625 227.21689453 102.84375 226.41796875 C92.29477099 221.03738141 82.56854473 214.96663956 73 208 C72.43909668 207.59217285 71.87819336 207.1843457 71.30029297 206.76416016 C67.82820069 204.22536964 64.40480768 201.6281012 61 199 C60.17371094 198.36835938 59.34742188 197.73671875 58.49609375 197.0859375 C42.19024789 184.36580734 26.64480096 169.35832987 14 153 C13.20335937 152.0203125 12.40671875 151.040625 11.5859375 150.03125 C5.2844855 142.21205528 0.10585886 133.93432692 -4.78417969 125.171875 C-5.96537575 123.06185086 -7.17310327 120.96876593 -8.3828125 118.875 C-18.2121452 101.49781245 -25.21469283 81.0484302 -26 61 C-26.03254883 60.21947266 -26.06509766 59.43894531 -26.09863281 58.63476562 C-26.77606196 40.06362731 -25.10067008 21.46063973 -12.91015625 6.421875 C-5.07414966 -1.69138322 -5.07414966 -1.69138322 0 0 Z " fill="#F9611B" transform="translate(196,209)"/>
<path d="M0 0 C1.65586945 2.19662663 3.16307726 4.37561177 4.6484375 6.68359375 C5.32190216 7.70757515 5.32190216 7.70757515 6.00897217 8.75224304 C6.97125065 10.2163704 7.93008047 11.68276901 8.88580322 13.15118408 C11.36883676 16.96330562 13.8805455 20.75643572 16.390625 24.55078125 C17.1272789 25.66601166 17.1272789 25.66601166 17.8788147 26.80377197 C26.51338648 39.85057407 35.81942891 52.28605128 45.70556641 64.40576172 C47.49284028 66.60698737 49.24422941 68.83611048 51 71.0625 C59.47296106 81.62755021 68.46074975 91.6740888 77.74609375 101.52734375 C80.4629547 104.41366527 83.11900447 107.3474098 85.75 110.3125 C92.05428733 117.35365208 98.69490892 124.01689897 105.87890625 130.16015625 C108.42541058 132.36900254 110.8960016 134.65320554 113.375 136.9375 C127.93571474 150.17091149 145.61591583 166.11589903 163.71484375 174.21484375 C167.04979021 176.82009252 167.07178426 179.84339659 167.625 183.8125 C171.00683857 203.15592604 179.16717618 222.55190959 188 240 C188.50273437 241.07507813 189.00546875 242.15015625 189.5234375 243.2578125 C202.07810459 269.65323452 220.03893507 294.1475085 239.8046875 315.59375 C241.62458641 317.58851464 243.38823185 319.61332806 245.1484375 321.66015625 C255.64705321 333.68217739 267.18664297 345.44543284 280 355 C281.40515662 356.08306262 282.8100828 357.16642424 284.21484375 358.25 C301.19112396 371.1965125 321.60752655 385.20250885 342 392 C339.81790155 398.54629535 331.07846773 402.10506203 325.25 405.1875 C303.09640029 415.86462151 274.64011222 416.09579238 251.49316406 408.13818359 C246.16743554 406.0742223 241.08078183 403.5995576 236 401 C234.82953125 400.43152344 233.6590625 399.86304688 232.453125 399.27734375 C222.03397489 394.0054532 212.89481685 387.50287151 205.375 378.5625 C199.31171449 372.14786517 191.42785399 371.95173574 183.03955078 371.34375 C180.73482251 370.95530645 179.03213975 370.13283655 177 369 C183.68613564 384.65740624 194.4369167 397.47644605 210.26953125 404.4375 C212.82992759 405.38409069 215.37666145 406.24822162 218 407 C209.94123522 413.9187444 196.17293831 415.08549379 186 417 C184.94554687 417.20753906 183.89109375 417.41507813 182.8046875 417.62890625 C149.60628478 423.13629788 114.93567484 418.40830157 87 399 C78.01729769 392.49952186 67.86385918 384.81137521 64 374 C63.96768099 372.00026115 63.96446828 369.99968435 64 368 C65.16756836 367.98018066 66.33513672 367.96036133 67.53808594 367.93994141 C71.97413603 367.86242591 76.40991823 367.7739686 80.84570312 367.68261719 C82.74603899 367.64491718 84.6464321 367.609976 86.546875 367.578125 C105.40873129 367.25843252 123.80570798 365.60424149 142.39526367 362.39550781 C144.72524062 361.99348814 147.05674767 361.60148938 149.38867188 361.2109375 C150.90897583 360.95384339 152.42916136 360.69604789 153.94921875 360.4375 C154.66985504 360.31496857 155.39049133 360.19243713 156.13296509 360.06619263 C159.91546107 359.4088219 163.62876443 358.62965885 167.34765625 357.6796875 C171.28508984 356.94694585 171.65972052 357.03808018 174.75 359.125 C175.71486328 359.83269531 175.71486328 359.83269531 176.69921875 360.5546875 C189.94310401 368.87427586 208.53932746 368.27382233 223.31640625 365.6328125 C226.28380167 364.93307733 229.12315573 364.00541694 232 363 C230.9584375 362.92523437 229.916875 362.85046875 228.84375 362.7734375 C206.33728634 360.84249576 185.2032599 350.92500839 170 334 C166.97513945 330.20240196 164.17487756 326.34975513 162 322 C159.45850222 321.41612487 159.45850222 321.41612487 156.4375 321.0625 C151.23439964 320.28545395 146.83420673 319.04524131 142 317 C145.410646 331.58536421 151.48263621 341.82271018 163.0625 351.5 C164.031875 352.325 165.00125 353.15 166 354 C166 354.66 166 355.32 166 356 C163.73060504 356.48695519 161.45982362 356.96455752 159.1875 357.4375 C157.92292969 357.70433594 156.65835938 357.97117187 155.35546875 358.24609375 C112.25628418 366.27211523 62.65565338 358.37790146 26.0390625 334.03125 C19.5947617 329.48233179 13.73344332 324.40835118 8 319 C7.37351563 318.42636719 6.74703125 317.85273437 6.1015625 317.26171875 C0.97501219 312.40193463 -3.00086497 306.80001402 -7 301 C-7.71349609 300.01386719 -7.71349609 300.01386719 -8.44140625 299.0078125 C-13.80563142 291.17167166 -17.60759075 281.54274891 -17 272 C-15.4585058 270.4585058 -14.01556186 270.79353685 -11.875 270.75 C-11.12992188 270.72421875 -10.38484375 270.6984375 -9.6171875 270.671875 C-6.08364398 271.11488643 -3.25291679 272.5685773 0 274 C2.40433489 274.6903276 4.82200189 275.33566643 7.25 275.9375 C11.60886202 277.04861375 15.86618006 278.24121469 20.0625 279.875 C32.16441578 284.47227431 45.06709355 287.40521292 57.66015625 290.359375 C60 291 60 291 62.2265625 291.9387207 C67.91299667 294.11468279 73.99655069 295.14428578 79.9375 296.4375 C81.00455673 296.6713591 81.00455673 296.6713591 82.09317017 296.90994263 C102.85511672 301.52862039 102.85511672 301.52862039 124 303 C123.12601562 302.84966309 123.12601562 302.84966309 122.234375 302.69628906 C110.01521363 300.57810897 97.96804967 298.26401355 86 295 C85.35885254 294.8345166 84.71770508 294.6690332 84.05712891 294.49853516 C36.04468083 282.09482484 -7.95076597 252.51234993 -34 210 C-43.10735815 194.4101118 -47.35200098 176.91123347 -47.375 158.9375 C-47.41173828 157.4205957 -47.41173828 157.4205957 -47.44921875 155.87304688 C-47.47815063 148.38451286 -46.41609601 141.19493376 -41.546875 135.21557617 C-40 134 -40 134 -37.0859375 134.109375 C-33.81604352 135.05309124 -32.18699032 136.04872312 -29.625 138.25 C-28.76648438 138.97058594 -27.90796875 139.69117188 -27.0234375 140.43359375 C-26.02570313 141.28050781 -25.02796875 142.12742187 -24 143 C-21.42616113 145.11587789 -18.83802393 147.21401051 -16.25 149.3125 C-15.56244629 149.87155029 -14.87489258 150.43060059 -14.16650391 151.0065918 C-2.32477772 160.62643693 9.74809477 169.90912621 22 179 C23.45019531 180.08087891 23.45019531 180.08087891 24.9296875 181.18359375 C49.18516965 199.06931279 76.91730837 219.14469325 106 228 C104.43765625 227.21689453 104.43765625 227.21689453 102.84375 226.41796875 C92.29477099 221.03738141 82.56854473 214.96663956 73 208 C72.43909668 207.59217285 71.87819336 207.1843457 71.30029297 206.76416016 C67.82820069 204.22536964 64.40480768 201.6281012 61 199 C60.17371094 198.36835938 59.34742188 197.73671875 58.49609375 197.0859375 C42.19024789 184.36580734 26.64480096 169.35832987 14 153 C13.20335937 152.0203125 12.40671875 151.040625 11.5859375 150.03125 C5.2844855 142.21205528 0.10585886 133.93432692 -4.78417969 125.171875 C-5.96537575 123.06185086 -7.17310327 120.96876593 -8.3828125 118.875 C-18.2121452 101.49781245 -25.21469283 81.0484302 -26 61 C-26.03254883 60.21947266 -26.06509766 59.43894531 -26.09863281 58.63476562 C-26.77606196 40.06362731 -25.10067008 21.46063973 -12.91015625 6.421875 C-5.07414966 -1.69138322 -5.07414966 -1.69138322 0 0 Z " fill="#FCDB83" transform="translate(196,209)"/>
<path d="M0 0 C8.243597 10.91719602 9.82119719 22.91065508 9.625 36.3125 C9.61082031 37.60518799 9.59664062 38.89787598 9.58203125 40.22973633 C9.18194418 64.98981235 2.34187464 87.90456569 -8.6875 110.0625 C-9.07164062 110.84173828 -9.45578125 111.62097656 -9.8515625 112.42382812 C-15.36901591 123.52102878 -21.52262836 133.95415616 -28.6875 144.0625 C-29.70457031 145.50496094 -29.70457031 145.50496094 -30.7421875 146.9765625 C-32.69355396 149.69593664 -34.68111306 152.38349572 -36.6875 155.0625 C-37.45707031 156.10019531 -38.22664062 157.13789062 -39.01953125 158.20703125 C-45.47144929 166.8155757 -52.31421705 175.39403414 -60.45703125 182.46875 C-63.32125553 185.79947666 -63.33927683 187.70518379 -63.5625 192.0625 C-64.23241735 200.60321695 -66.09017581 208.75180561 -68.125 217.0625 C-68.42583496 218.30257812 -68.72666992 219.54265625 -69.03662109 220.8203125 C-71.84109994 232.12982763 -75.5560187 242.42380939 -80.3125 253.0625 C-80.84738037 254.25931396 -81.38226074 255.45612793 -81.93334961 256.68920898 C-86.14962652 266.03385021 -90.57955194 275.1731199 -95.6875 284.0625 C-96.10322266 284.78695313 -96.51894531 285.51140625 -96.94726562 286.2578125 C-103.05040965 296.7823453 -109.79396416 306.62100621 -117.26171875 316.21923828 C-118.62017044 317.97545579 -119.95457601 319.74704931 -121.28125 321.52734375 C-126.24512184 328.15622556 -131.52446798 334.34186592 -137.18359375 340.375 C-139.16498966 342.50167767 -141.06565012 344.65367431 -142.9375 346.875 C-145.3657079 349.62876813 -147.85593237 352.28812166 -150.44921875 354.88671875 C-151.13274414 355.57209717 -151.81626953 356.25747559 -152.52050781 356.96362305 C-155.56893707 360.00391845 -158.62399337 363.03739798 -161.6875 366.0625 C-165.64941997 364.69971192 -168.28594052 362.92755012 -171.4375 360.1875 C-183.50654333 350.12201327 -196.76937906 341.61014523 -209.8125 332.875 C-210.74903915 332.2457814 -210.74903915 332.2457814 -211.70449829 331.60385132 C-224.71338227 322.87410716 -238.13289449 314.91256017 -251.6875 307.0625 C-249.14933252 305.37038835 -246.71628141 304.02165785 -243.99609375 302.6640625 C-231.27287051 296.23232633 -219.29032239 289.34371021 -207.6875 281.0625 C-206.89859375 280.50272461 -206.1096875 279.94294922 -205.296875 279.36621094 C-194.63160768 271.7621131 -184.48375535 263.75293635 -174.6875 255.0625 C-173.27134449 253.83274445 -171.85476131 252.60348098 -170.4375 251.375 C-169.18548456 250.27311917 -167.935593 249.16882179 -166.6875 248.0625 C-165.87667969 247.34449219 -165.06585937 246.62648438 -164.23046875 245.88671875 C-154.54466508 237.24645911 -145.94205121 228.06801662 -137.6875 218.0625 C-138.24042725 217.95921387 -138.79335449 217.85592773 -139.36303711 217.74951172 C-142.19375035 216.91287407 -144.35896314 215.60976702 -146.87890625 214.0703125 C-147.895896 213.45341553 -148.91288574 212.83651855 -149.96069336 212.20092773 C-151.04616455 211.53649658 -152.13163574 210.87206543 -153.25 210.1875 C-155.53326234 208.80499666 -157.81709212 207.42347073 -160.1015625 206.04296875 C-161.79007324 205.02082275 -161.79007324 205.02082275 -163.51269531 203.97802734 C-181.97703416 192.83751653 -200.98930157 182.72329173 -220.04296875 172.63671875 C-220.75150497 172.26133972 -221.4600412 171.88596069 -222.19004822 171.49920654 C-225.64980094 169.66628174 -229.11080316 167.83583566 -232.57495117 166.01123047 C-249.19104294 157.23814437 -249.19104294 157.23814437 -255.6875 153.0625 C-255.6875 152.7325 -255.6875 152.4025 -255.6875 152.0625 C-254.98778076 151.92674561 -254.28806152 151.79099121 -253.56713867 151.65112305 C-250.33558508 151.02164805 -247.10530348 150.38585782 -243.875 149.75 C-242.77478516 149.53666016 -241.67457031 149.32332031 -240.54101562 149.10351562 C-205.52832645 142.18360361 -173.22355658 126.79564125 -143.6875 107.0625 C-143.048125 106.63710938 -142.40875 106.21171875 -141.75 105.7734375 C-128.53956823 96.9492819 -116.16547821 87.30071135 -104.11328125 76.9609375 C-102.2123408 75.33105599 -100.28997806 73.74685228 -98.32861328 72.18945312 C-91.90095351 67.06233608 -85.99783223 61.61652028 -80.24817467 55.742939 C-78.77449234 54.23829122 -77.29354592 52.74111289 -75.81074524 51.24545288 C-71.60392945 46.99953976 -67.41025758 42.74073527 -63.2199707 38.47851562 C-27.0528629 1.71419415 -27.0528629 1.71419415 -9.6875 -0.9375 C-8.45 -1.246875 -7.2125 -1.55625 -5.9375 -1.875 C-2.6875 -1.9375 -2.6875 -1.9375 0 0 Z " fill="#B01D00" transform="translate(842.6875,417.9375)"/>
<path d="M0 0 C1.78325376 0.93501845 3.55271341 1.89652945 5.3125 2.875 C12.35529156 6.49650963 19.23099825 7.7900735 27 9 C27 10.98 27 12.96 27 15 C19.14120137 14.64775091 12.34937998 13.86501253 5 11 C11.68613564 26.65740624 22.4369167 39.47644605 38.26953125 46.4375 C40.82992759 47.38409069 43.37666145 48.24822162 46 49 C37.94123522 55.9187444 24.17293831 57.08549379 14 59 C12.94554687 59.20753906 11.89109375 59.41507813 10.8046875 59.62890625 C-22.39371522 65.13629788 -57.06432516 60.40830157 -85 41 C-93.98270231 34.49952186 -104.13614082 26.81137521 -108 16 C-108.03231901 14.00026115 -108.03553172 11.99968435 -108 10 C-106.24864746 9.970271 -106.24864746 9.970271 -104.46191406 9.93994141 C-100.02586397 9.86242591 -95.59008177 9.7739686 -91.15429688 9.68261719 C-89.25396101 9.64491718 -87.3535679 9.609976 -85.453125 9.578125 C-66.53965856 9.25755777 -48.08455453 7.58810568 -29.43994141 4.39550781 C-27.07724095 3.99184037 -24.71266475 3.60083254 -22.34765625 3.2109375 C-20.81758601 2.95385199 -19.28763307 2.69606706 -17.7578125 2.4375 C-17.06406525 2.322854 -16.37031799 2.20820801 -15.6555481 2.09008789 C-1.06130726 -0.43638582 -1.06130726 -0.43638582 0 0 Z " fill="#FCD062" transform="translate(368,567)"/>
<path d="M0 0 C7.90631867 6.93399762 16.21417563 15.28411972 20.1171875 25.20703125 C20.23312555 29.14892482 18.13781341 31.45556751 15.8828125 34.48828125 C2.34774411 53.79180391 -6.06054724 74.84978099 -10.8046875 97.86328125 C-20.3413244 88.52028165 -26.8554317 79.22458291 -27.1171875 65.61328125 C-27.15830068 59.2932719 -26.22756187 55.19893836 -22.8046875 49.86328125 C-22.1239743 48.53706416 -21.45375412 47.20527035 -20.8046875 45.86328125 C-44.88193185 19.37831246 -83.46831773 -2.12930594 -116.8046875 -14.13671875 C-116.8046875 -14.79671875 -116.8046875 -15.45671875 -116.8046875 -16.13671875 C-78.6038787 -29.64759727 -31.79048234 -26.72643037 0 0 Z " fill="#B01E00" transform="translate(508.8046875,346.13671875)"/>
<path d="M0 0 C6.27 0 12.54 0 19 0 C19 0.66 19 1.32 19 2 C18.13375 2.495 17.2675 2.99 16.375 3.5 C10.49422685 7.19290257 7.22395198 14.62447843 5 21 C1.97055117 49.32407369 11.20879375 75.88807223 29 98 C31.24355323 100.63769096 33.52881521 103.20969319 35.89453125 105.73828125 C37.78577504 107.76987708 39.54781586 109.85930568 41.3125 112 C48.8899974 120.65999703 60.94845545 131.31615182 72 135 C72 135.66 72 136.32 72 137 C69.54041322 137.10985747 67.0859094 137.1881459 64.625 137.25 C63.94566406 137.28351563 63.26632812 137.31703125 62.56640625 137.3515625 C34.7059868 137.872318 -0.50359659 106.41587812 -20.16455078 88.61572266 C-22.15581086 86.86284168 -24.21292274 85.20883861 -26.27734375 83.54296875 C-36.24348097 75.11960183 -36.24348097 75.11960183 -37.53320312 69.80126953 C-37.86976396 64.30134402 -36.56905028 59.23056961 -35 54 C-34.67386719 52.78183594 -34.34773438 51.56367187 -34.01171875 50.30859375 C-29.80051481 36.84805461 -22.19465697 24.59516764 -13 14 C-12.14507826 12.91726244 -11.29080941 11.8340087 -10.4375 10.75 C-7.95886289 7.9535889 -5.35163473 5.64088722 -2.453125 3.296875 C-0.86712389 2.04219297 -0.86712389 2.04219297 0 0 Z " fill="#A91C00" transform="translate(483,465)"/>
<path d="M0 0 C8.12341491 7.9670173 11.07290273 18.65616815 11.36328125 29.890625 C11.36592566 32.34380697 11.34840969 34.79707944 11.3125 37.25 C11.29832031 38.54268799 11.28414062 39.83537598 11.26953125 41.16723633 C10.86944418 65.92731235 4.02937464 88.84206569 -7 111 C-7.38414062 111.77923828 -7.76828125 112.55847656 -8.1640625 113.36132812 C-13.68151591 124.45852878 -19.83512836 134.89165616 -27 145 C-27.67804688 145.96164062 -28.35609375 146.92328125 -29.0546875 147.9140625 C-31.00605396 150.63343664 -32.99361306 153.32099572 -35 156 C-35.76957031 157.03769531 -36.53914062 158.07539062 -37.33203125 159.14453125 C-43.78394929 167.7530757 -50.62671705 176.33153414 -58.76953125 183.40625 C-61.63375553 186.73697666 -61.65177683 188.64268379 -61.875 193 C-62.54491735 201.54071695 -64.40267581 209.68930561 -66.4375 218 C-66.73833496 219.24007812 -67.03916992 220.48015625 -67.34912109 221.7578125 C-70.15359994 233.06732763 -73.8685187 243.36130939 -78.625 254 C-79.15988037 255.19681396 -79.69476074 256.39362793 -80.24584961 257.62670898 C-84.46212652 266.97135021 -88.89205194 276.1106199 -94 285 C-94.41572266 285.72445313 -94.83144531 286.44890625 -95.25976562 287.1953125 C-101.36290965 297.7198453 -108.10646416 307.55850621 -115.57421875 317.15673828 C-116.93267044 318.91295579 -118.26707601 320.68454931 -119.59375 322.46484375 C-124.54855264 329.08161432 -129.81790958 335.25738322 -135.46484375 341.28125 C-137.61375393 343.58578234 -139.69641291 345.92353963 -141.75 348.3125 C-144.99150439 352.05631984 -148.4512925 355.54836961 -152 359 C-152.66 358.67 -153.32 358.34 -154 358 C-153.34257813 357.21302734 -153.34257813 357.21302734 -152.671875 356.41015625 C-145.99627618 348.25561379 -139.98244538 339.66947594 -134 331 C-133.50983398 330.29343262 -133.01966797 329.58686523 -132.51464844 328.85888672 C-105.29595201 289.46915446 -83.28522558 245.44706822 -75 198 C-81.435 201.465 -81.435 201.465 -88 205 C-85.89003025 200.78006049 -83.40207973 198.46501723 -79.9375 195.4375 C-51.37458554 169.67325728 -33.24086761 131.42393024 -20 96 C-19.73010254 95.28851807 -19.46020508 94.57703613 -19.18212891 93.84399414 C-13.98228516 80.11172578 -9.64471584 66.278888 -6.1875 52 C-5.8977832 50.80866455 -5.60806641 49.6173291 -5.30957031 48.38989258 C-2.42393893 36.15654892 -0.73377183 24.25198843 -0.375 11.6875 C-0.31699219 9.9869043 -0.31699219 9.9869043 -0.2578125 8.25195312 C-0.16496847 5.5014488 -0.07910324 2.75092776 0 0 Z " fill="#F25915" transform="translate(841,417)"/>
<path d="M0 0 C4.04291788 2.59319035 7.41077203 5.39372693 10.33984375 9.21875 C10.84 9.85296875 11.34015625 10.4871875 11.85546875 11.140625 C15.33984375 15.77369505 15.33984375 15.77369505 15.33984375 18.21875 C14.3446875 18.486875 13.34953125 18.755 12.32421875 19.03125 C1.40937155 22.06131426 -8.96738188 25.99231135 -19.43017578 30.31323242 C-22.81400705 31.68728872 -26.232355 32.95929435 -29.66015625 34.21875 C-30.30670166 34.45980469 -30.95324707 34.70085937 -31.61938477 34.94921875 C-57.89503313 44.70327901 -57.89503313 44.70327901 -67.66015625 44.21875 C-67.11875 43.53039062 -67.11875 43.53039062 -66.56640625 42.828125 C-66.10234375 42.21453125 -65.63828125 41.6009375 -65.16015625 40.96875 C-64.69609375 40.36546875 -64.23203125 39.7621875 -63.75390625 39.140625 C-62.33041206 37.00789405 -62.33041206 37.00789405 -62.66015625 33.21875 C-64.64015625 34.53875 -66.62015625 35.85875 -68.66015625 37.21875 C-66.97968211 24.12264122 -60.96755774 14.37893424 -51.66015625 5.21875 C-51.06074219 4.620625 -50.46132813 4.0225 -49.84375 3.40625 C-36.18735071 -9.26790248 -15.38135788 -9.06969043 0 0 Z " fill="#060302" transform="translate(636.66015625,355.78125)"/>
<path d="M0 0 C0 3 0 3 -1.3125 5.9375 C-5.50530039 15.45116963 -6.46283412 24.95511965 -6.3125 35.25 C-6.31572266 36.36890625 -6.31894531 37.4878125 -6.32226562 38.640625 C-6.24471338 50.59777074 -3.49010007 63.30782721 5.1328125 72.19921875 C11.42718769 76.99548619 17.19164419 77.87745413 25 77 C29.16930052 75.67789286 33.04761049 73.86203716 37 72 C40.97477124 70.26766641 44.97316012 68.60742168 49 67 C49.78503906 66.67644531 50.57007813 66.35289062 51.37890625 66.01953125 C62.32260339 62.07535614 76.30166479 62.56078618 87 67 C94.27293833 70.42609492 100.36856932 75.52864245 106.47167969 80.68530273 C112.61351605 85.78837338 118.24385606 89.62527927 126.5 89.25 C127.5415625 89.21390625 128.583125 89.1778125 129.65625 89.140625 C130.4296875 89.09421875 131.203125 89.0478125 132 89 C129.22731777 96.85365656 122.99950493 103.05911475 115.875 107.25 C114 108 114 108 111 108 C110.67128906 106.948125 110.67128906 106.948125 110.3359375 105.875 C107.3082095 96.81643168 103.00876245 90.48310527 96 84 C95.113125 83.154375 94.22625 82.30875 93.3125 81.4375 C84.04659556 73.84327935 70.78871098 72.04892894 59.23974609 72.76611328 C42.16793709 74.54884633 26.93111963 83.20998452 12.76953125 92.3359375 C10.22537467 93.86458447 7.78484852 94.99195611 5 96 C5 95.34 5 94.68 5 94 C4.278125 93.7628125 3.55625 93.525625 2.8125 93.28125 C-6.94585866 88.8357755 -12.22338418 79.14656392 -15.92578125 69.6171875 C-21.60946962 53.72440958 -20.39328682 35.39308461 -13.71484375 20.046875 C-9.98997881 12.78390715 -5.0254659 6.39909324 0 0 Z " fill="#AD1F01" transform="translate(740,311)"/>
<path d="M0 0 C3.44607499 1.03884919 6.51552498 2.75451821 9.6875 4.4375 C19.6743954 9.41626109 28.94638853 10.57259369 40 11 C40 11.66 40 12.32 40 13 C21.86184868 28.91476503 -7.29097435 37.53039817 -31 36 C-41.2332419 34.73150439 -50.02896059 31.94223685 -57 24 C-57 23.34 -57 22.68 -57 22 C-53.87512763 19.91675175 -51.94678772 19.4307734 -48.3125 18.6875 C-33.25065393 15.33486317 -16.09934317 10.80161456 -3.25 1.9375 C-2.1775 1.298125 -1.105 0.65875 0 0 Z " fill="#F8C757" transform="translate(417,618)"/>
<path d="M0 0 C2.68837371 0.45360636 5.37561225 0.91273974 8.0625 1.375 C8.81466797 1.50132812 9.56683594 1.62765625 10.34179688 1.7578125 C23.75228821 4.0799755 23.75228821 4.0799755 28.9375 9.9375 C40.39012586 22.09583344 54.82522003 29.46500777 70 36 C70.99515625 36.44214844 71.9903125 36.88429688 73.015625 37.33984375 C91.87772935 45.00618984 114.30017856 44.70820168 134 41 C132.39306756 44.21386489 129.23890209 44.88490962 126 46 C122.33804542 46.99839485 118.64643721 47.8211902 114.9375 48.625 C113.97005859 48.8415625 113.00261719 49.058125 112.00585938 49.28125 C102.46020366 51.39815106 93.7942685 52.20902402 84 52 C82.7728125 51.98324219 81.545625 51.96648438 80.28125 51.94921875 C67.91971254 51.49475046 54.40103455 48.68767691 45 40 C45 39.34 45 38.68 45 38 C43.9275 38.12375 42.855 38.2475 41.75 38.375 C31.08170034 38.31855397 21.33556178 29.99462862 14 23 C0 8.10730949 0 8.10730949 0 0 Z " fill="#B72702" transform="translate(373,578)"/>
<path d="M0 0 C1.16015625 0.30744141 1.16015625 0.30744141 2.34375 0.62109375 C3.90609375 1.02521484 3.90609375 1.02521484 5.5 1.4375 C7.14548828 1.86675781 7.14548828 1.86675781 8.82421875 2.3046875 C11.48016089 2.88618529 13.62642115 3.07309597 16.3125 3.0625 C21.37386518 4.34928776 22.45682657 6.88439728 25.1640625 11.171875 C36.41724867 28.50657029 56.23292771 38.94810455 75.95751953 43.59082031 C80.92855782 44.58669172 85.94066953 44.90321281 91 45 C90 47 90 47 87.6875 48 C67.7052063 53.41892711 48.16741625 52.15471301 30 42 C28.0042193 40.99160554 26.00527219 39.9893854 24 39 C24 38.34 24 37.68 24 37 C23.45085937 36.77183594 22.90171875 36.54367187 22.3359375 36.30859375 C11.0339864 29.97723318 4.31429233 17.86865746 0.4453125 5.97265625 C0 4 0 4 0 0 Z " fill="#BB2703" transform="translate(338,526)"/>
<path d="M0 0 C0.66386719 0.33773438 1.32773437 0.67546875 2.01171875 1.0234375 C3.33623047 1.69246094 3.33623047 1.69246094 4.6875 2.375 C5.55761719 2.81585938 6.42773438 3.25671875 7.32421875 3.7109375 C9.9523406 5.06142623 9.9523406 5.06142623 12.71484375 5.82421875 C15 7 15 7 16.1171875 9.43359375 C16.36726563 10.42488281 16.61734375 11.41617187 16.875 12.4375 C22.62109554 31.59878272 38.97996609 45.6771736 56 55 C59.11685169 56.43353457 62.24361322 57.75125289 65.44140625 58.9921875 C67.70564631 59.8840561 69.84469265 60.87416887 72 62 C69.53973134 64.46026866 63.16758878 63.29280307 59.875 63.3125 C41.92687861 63.3125 27.54862799 59.34017638 14.125 46.6875 C3.16211738 34.87977138 -1.61976561 21.75218676 -1.23828125 5.609375 C-1 3 -1 3 0 0 Z " fill="#BC2A04" transform="translate(324,467)"/>
<path d="M0 0 C2.06452815 3.57670447 2.85269406 7.3279262 3.75 11.3125 C10.28704438 38.4618465 25.84375895 61.24261137 49 77 C51.63371379 78.5067105 54.22166652 79.77112173 57 81 C57 81.33 57 81.66 57 82 C39.69270077 82.41997278 21.92020416 76.61164101 9.01953125 65.04296875 C2.77419223 58.72514997 -1.25426247 51.39336827 -4 43 C-4.35707031 41.93394531 -4.71414063 40.86789062 -5.08203125 39.76953125 C-6.15070263 35.38115727 -6.38319478 31.37347984 -6.375 26.875 C-6.37483887 26.04476318 -6.37467773 25.21452637 -6.37451172 24.35913086 C-6.21302754 15.56164288 -4.10584797 7.82330491 0 0 Z " fill="#C12D06" transform="translate(325,401)"/>
<path d="M0 0 C4.31869981 0.90391391 6.25853753 4.04418467 8.6875 7.5625 C12.89173681 15.77077187 12.7497534 26.95651669 11.125 35.875 C9.23203307 40.73087168 6.72643518 44.25175858 2.6875 47.5625 C-0.375 48.5 -0.375 48.5 -3.3125 47.5625 C-8.47016977 43.46152355 -11.12204117 37.94137524 -12.3125 31.5625 C-13.32162285 21.31709999 -12.00009292 10.71300387 -5.3125 2.5625 C-2.3125 0.5625 -2.3125 0.5625 0 0 Z " fill="#0C0301" transform="translate(779.3125,310.4375)"/>
<path d="M0 0 C3.34339049 3.10050064 5.8395822 6.51750175 8.30859375 10.3203125 C9.13996957 11.58195276 9.97134996 12.84359001 10.80273438 14.10522461 C11.23287842 14.76183075 11.66302246 15.41843689 12.10620117 16.09494019 C14.34801649 19.51342077 16.60861289 22.91939164 18.87109375 26.32421875 C19.53919571 27.32966484 19.53919571 27.32966484 20.22079468 28.35542297 C28.77192181 41.19122304 37.95925643 53.45747 47.70556641 65.40576172 C49.49284028 67.60698737 51.24422941 69.83611048 53 72.0625 C61.56513669 82.75562095 70.67037336 92.9724879 80 103 C79.67 103.66 79.34 104.32 79 105 C78.67 104.67 78.34 104.34 78 104 C77.67 104.66 77.34 105.32 77 106 C72.85160577 104.36063457 70.01833349 101.36096612 66.9375 98.25 C66.36676758 97.67652832 65.79603516 97.10305664 65.20800781 96.51220703 C59.74039494 90.91253355 54.98445024 84.86431989 50.26123047 78.63720703 C48.3405094 76.14391328 46.32548494 73.73152293 44.3125 71.3125 C40.69828318 66.92013329 37.30441771 62.41148452 33.99609375 57.78515625 C32.58910563 55.82198105 31.16273 53.87262959 29.72265625 51.93359375 C28.98917969 50.94488281 28.25570312 49.95617187 27.5 48.9375 C26.8296875 48.03902344 26.159375 47.14054687 25.46875 46.21484375 C24 44 24 44 24 42 C23.34 42 22.68 42 22 42 C20.87426758 40.50634766 20.87426758 40.50634766 19.64453125 38.4140625 C18.9628186 37.27179199 18.9628186 37.27179199 18.26733398 36.10644531 C17.78723877 35.28756836 17.30714355 34.46869141 16.8125 33.625 C13.67978074 28.36799384 10.54680704 23.19947169 6.9375 18.25 C4.19120077 14.43934557 2 10.839766 2 6 C1.35747635 3.9921136 0.69258229 1.99117408 0 0 Z " fill="#F6E4AF" transform="translate(194,208)"/>
<path d="M0 0 C5.96438583 0.88590187 9.13142595 3.4583224 13 8 C18.24966032 16.08848358 22.13156354 23.74468191 22.1875 33.5 C22.20167969 34.6240625 22.21585938 35.748125 22.23046875 36.90625 C22.00970218 39.86976056 21.5460647 41.5067415 20 44 C14.8234365 43.32748919 13.00082716 41.49923194 9.7734375 37.57421875 C1.54463407 25.6297662 -0.39339153 14.14024003 0 0 Z " fill="#080201" transform="translate(825,319)"/>
<path d="M0 0 C2.88664591 0.92029701 4.82020293 2.54371709 6.97265625 4.62890625 C6.69162711 8.00125596 6.16893973 9.41530364 3.84765625 11.94140625 C0.19338108 14.08630689 -1.85574996 14.31153069 -6.02734375 13.62890625 C-8.72235031 11.21031062 -9.83371246 9.6212666 -10.52734375 6.06640625 C-10.02734375 3.62890625 -10.02734375 3.62890625 -8.52734375 1.25390625 C-5.50194673 -0.71260181 -3.51373999 -0.62393514 0 0 Z " fill="#F1F0F0" transform="translate(624.02734375,358.37109375)"/>
<path d="M0 0 C3.52048586 3.24261912 6.11678646 6.90698171 8.73046875 10.8828125 C9.16635818 11.53829071 9.60224762 12.19376892 10.05134583 12.86911011 C10.96696971 14.24773604 11.88039986 15.62782121 12.79174805 17.00927734 C14.1892984 19.12772607 15.5930445 21.24195671 16.99804688 23.35546875 C17.88838051 24.69767815 18.77836672 26.04011809 19.66796875 27.3828125 C20.08773483 28.01615509 20.50750092 28.64949768 20.93998718 29.30203247 C23.88155543 33.76311087 23.88155543 33.76311087 25 36 C23.68 37.32 22.36 38.64 21 40 C20.69819824 39.53215088 20.39639648 39.06430176 20.08544922 38.58227539 C19.18808573 37.19175541 18.290349 35.80147626 17.39233398 34.41137695 C16.37812569 32.84135313 15.36462002 31.27087521 14.35180664 29.69995117 C11.76671588 25.69813216 9.14708948 21.73160698 6.4375 17.8125 C3.97758037 14.15452154 2 10.51621025 2 6 C1.35747635 3.9921136 0.69258229 1.99117408 0 0 Z " fill="#F4DA9B" transform="translate(194,208)"/>
<path d="M0 0 C3.82469454 0.21855397 6.47979586 1.55504306 9.32421875 4.10546875 C16.74849424 12.49888044 22.89930645 24.02988 23.4375 35.375 C22.97189639 39.23285848 22.074805 41.72819211 20 45 C19.01 45.495 19.01 45.495 18 46 C18.15855469 45.46632813 18.31710937 44.93265625 18.48046875 44.3828125 C20.44698822 35.36343751 19.22108866 27.08823509 15 19 C14.34644531 17.69869141 14.34644531 17.69869141 13.6796875 16.37109375 C10.77464252 11.04517795 7.7900068 7.5266712 2.734375 4.15625 C1 3 1 3 -1 1 C-0.67 0.67 -0.34 0.34 0 0 Z " fill="#B12505" transform="translate(827,317)"/>
<path d="M0 0 C1.16917969 0.31453125 2.33835937 0.6290625 3.54296875 0.953125 C15.13690714 3.98036755 26.95519468 6.01952335 38.73046875 8.203125 C38.73046875 8.533125 38.73046875 8.863125 38.73046875 9.203125 C31.23473137 9.42545619 24.13452151 8.5852336 16.73046875 7.453125 C14.95482544 7.18677246 14.95482544 7.18677246 13.14331055 6.91503906 C3.87500204 5.47992986 -5.20680562 3.60621727 -14.26953125 1.203125 C-9.8177942 -3.24861205 -5.60215566 -1.36539995 0 0 Z " fill="#231D0F" transform="translate(285.26953125,503.796875)"/>
<path d="M0 0 C0.99 0.33 1.98 0.66 3 1 C4.24609375 3.9140625 4.24609375 3.9140625 5.4375 7.625 C6.76255896 11.63559275 8.05308573 15.4650638 10.3125 19.0625 C12.04548419 22.07917619 12.41300893 23.59267637 12 27 C5.56823053 23.605455 2.64697015 19.29790687 0.52734375 12.4921875 C-0.35354846 8.32915615 -0.23845182 4.23031194 0 0 Z " fill="#F68043" transform="translate(823,333)"/>
<path d="M0 0 C2.40625 1.53125 2.40625 1.53125 4.8125 3.0625 C6.33423828 4.02736328 6.33423828 4.02736328 7.88671875 5.01171875 C9.79398039 6.2297817 11.6942537 7.45898467 13.58203125 8.70703125 C21.74527776 14.06141874 30.33710245 18.52129212 39 23 C34.88730708 24.37089764 32.49344168 22.77681957 28.75 21.0625 C28.04560791 20.74692139 27.34121582 20.43134277 26.61547852 20.10620117 C16.77986691 15.6286895 7.36458372 10.38016211 -2 5 C-1.34 4.67 -0.68 4.34 0 4 C0 2.68 0 1.36 0 0 Z " fill="#282015" transform="translate(267,415)"/>
<path d="M0 0 C4.55737263 0.43820891 7.57653445 0.85041169 11 4 C10.814375 4.94875 10.62875 5.8975 10.4375 6.875 C9.71313368 9.89868793 9.71313368 9.89868793 11 12 C5.52941176 11.39215686 5.52941176 11.39215686 3.3125 9.75 C1.66622499 7.55496665 0.22954043 5.45908087 -1 3 C-0.67 2.01 -0.34 1.02 0 0 Z " fill="#1B0300" transform="translate(631,365)"/>
<path d="M0 0 C0.66 0.33 1.32 0.66 2 1 C2 1.99 2 2.98 2 4 C1.34 4.66 0.68 5.32 0 6 C-1.32 6 -2.64 6 -4 6 C-4 6.66 -4 7.32 -4 8 C-10.89715536 12.07877462 -10.89715536 12.07877462 -15.5 11.75 C-16.7375 11.37875 -16.7375 11.37875 -18 11 C-14.31743466 7.88398317 -10.55207716 5.4837362 -6.3125 3.1875 C-5.17425781 2.56230469 -4.03601563 1.93710937 -2.86328125 1.29296875 C-1.91839844 0.86628906 -0.97351563 0.43960937 0 0 Z " fill="#F37331" transform="translate(773,411)"/>
<path d="M0 0 C0.66 0.33 1.32 0.66 2 1 C-11.62559839 13.23481985 -11.62559839 13.23481985 -21.8671875 13.16796875 C-22.57101562 13.11253906 -23.27484375 13.05710937 -24 13 C-21.30352466 9.59658356 -17.62925122 8.50665958 -13.6875 7.0625 C-8.62750615 5.20566744 -4.39085625 3.15188596 0 0 Z " fill="#340E05" transform="translate(530,608)"/>
<path d="M0 0 C3.66172475 0.62678171 6.8818995 1.64451846 10.3125 3.0625 C11.19550781 3.42472656 12.07851563 3.78695312 12.98828125 4.16015625 C13.65214844 4.43730469 14.31601562 4.71445312 15 5 C13.68 6.32 12.36 7.64 11 9 C12.32 9.33 13.64 9.66 15 10 C6.42857143 10.28571429 6.42857143 10.28571429 3 8 C3 7.34 3 6.68 3 6 C3.66 6 4.32 6 5 6 C3.86695008 2.60085025 2.87481525 1.94745549 0 0 Z " fill="#FCD575" transform="translate(370,570)"/>
<path d="M0 0 C4.29613647 0.9991015 6.25243106 4.10113891 8.6875 7.625 C10.5089606 11.10233387 10.91078622 13.71749117 10.6875 17.625 C7.90037908 16.23143954 7.42286671 14.45994327 6.0625 11.6875 C5.61648438 10.79160156 5.17046875 9.89570313 4.7109375 8.97265625 C3.6875 6.625 3.6875 6.625 3.6875 4.625 C0.7175 4.295 -2.2525 3.965 -5.3125 3.625 C-2.3125 0.625 -2.3125 0.625 0 0 Z " fill="#951B03" transform="translate(779.3125,310.375)"/>
<path d="M0 0 C2.97 1.98 5.94 3.96 9 6 C8.67 6.99 8.34 7.98 8 9 C4.33118845 8.29445932 1.29549466 6.72264494 -2 5 C-1.34 4.67 -0.68 4.34 0 4 C0 2.68 0 1.36 0 0 Z " fill="#16130B" transform="translate(267,415)"/>
<path d="M0 0 C-1.44472346 3.80881639 -3.32603071 5.29742886 -7 7 C-10 6 -10 6 -12 3 C-10.75336669 2.49166409 -9.50250613 1.99368855 -8.25 1.5 C-7.55390625 1.2215625 -6.8578125 0.943125 -6.140625 0.65625 C-4 0 -4 0 0 0 Z " fill="#181106" transform="translate(418,616)"/>
<path d="M0 0 C2.64624284 0.14021805 5.29184578 0.28689776 7.9375 0.4375 C9.06961914 0.49647461 9.06961914 0.49647461 10.22460938 0.55664062 C15.88671875 0.88671875 15.88671875 0.88671875 17 2 C19.0587768 2.27953219 21.11728432 2.44734351 23.1875 2.62109375 C24.0846875 2.80865234 24.0846875 2.80865234 25 3 C25.33 3.66 25.66 4.32 26 5 C23.16580388 4.71536919 20.33285146 4.42249381 17.5 4.125 C16.70851563 4.04636719 15.91703125 3.96773437 15.1015625 3.88671875 C9.90933976 3.33344911 5.03846179 2.3751765 0 1 C0 0.67 0 0.34 0 0 Z " fill="#DBBC5D" transform="translate(266,562)"/>
<path d="M0 0 C1.485 0.99 1.485 0.99 3 2 C3.29296875 4.8203125 3.29296875 4.8203125 3.1875 8.125 C3.16042969 9.22070312 3.13335937 10.31640625 3.10546875 11.4453125 C3.07066406 12.28835938 3.03585938 13.13140625 3 14 C2.01 14.495 2.01 14.495 1 15 C-0.58455205 10.14730934 -1.31046812 6.1744687 -1 1 C-0.67 0.67 -0.34 0.34 0 0 Z " fill="#DEB952" transform="translate(180,480)"/>
<path d="M0 0 C2.49361571 1.20381448 4.68143083 2.45428722 7 4 C6.67 4.66 6.34 5.32 6 6 C3.9375 6.625 3.9375 6.625 2 7 C1.67 6.34 1.34 5.68 1 5 C-0.64363134 4.27840576 -2.31050386 3.60648579 -4 3 C-2.68 2.01 -1.36 1.02 0 0 Z " fill="#FBE8B5" transform="translate(337,469)"/>
<path d="M0 0 C0.66 0.33 1.32 0.66 2 1 C0.71034824 2.37562854 -0.62689293 3.70766393 -2 5 C-2.66 5 -3.32 5 -4 5 C-4.3403125 5.86625 -4.3403125 5.86625 -4.6875 6.75 C-6.33708262 9.57785592 -8.39710359 11.04782769 -11 13 C-11.66 13.66 -12.32 14.32 -13 15 C-12.46672287 10.97283825 -10.48432021 9.14178557 -7.625 6.375 C-6.83351563 5.59898437 -6.04203125 4.82296875 -5.2265625 4.0234375 C-3 2 -3 2 0 0 Z " fill="#F37131" transform="translate(762,282)"/>
<path d="M0 0 C0.66 0.33 1.32 0.66 2 1 C0.59155282 4.21524305 -1.10344786 6.32183868 -3.625 8.75 C-4.57246094 9.67039062 -4.57246094 9.67039062 -5.5390625 10.609375 C-6.02117188 11.06828125 -6.50328125 11.5271875 -7 12 C-7.66 11.67 -8.32 11.34 -9 11 C-6.03 7.37 -3.06 3.74 0 0 Z " fill="#DC4E13" transform="translate(696,764)"/>
<path d="M0 0 C0.96164062 0.00515625 1.92328125 0.0103125 2.9140625 0.015625 C4.34878906 0.00789063 4.34878906 0.00789063 5.8125 0 C8.54964908 0.26665636 10.19893707 0.86820413 12.5390625 2.265625 C8.85505666 3.49666655 5.62431274 3.17329752 1.7890625 2.828125 C0.61859375 2.72628906 -0.551875 2.62445313 -1.7578125 2.51953125 C-3.09585938 2.39384766 -3.09585938 2.39384766 -4.4609375 2.265625 C-2.4609375 0.265625 -2.4609375 0.265625 0 0 Z " fill="#E46C30" transform="translate(804.4609375,400.734375)"/>
<path d="M0 0 C0.33 0 0.66 0 1 0 C1.33 4.29 1.66 8.58 2 13 C1.34 13 0.68 13 0 13 C-0.33 14.65 -0.66 16.3 -1 18 C-1.33 18 -1.66 18 -2 18 C-2.20190089 11.64012196 -1.6277833 6.14778871 0 0 Z " fill="#E2612B" transform="translate(824,321)"/>
<path d="M0 0 C3.3 0.33 6.6 0.66 10 1 C9.67 1.99 9.34 2.98 9 4 C6.03 3.67 3.06 3.34 0 3 C0 2.01 0 1.02 0 0 Z " fill="#2F2918" transform="translate(288,506)"/>
<path d="M0 0 C0.66 0.33 1.32 0.66 2 1 C0.37982158 2.33918806 -1.24629343 3.6711969 -2.875 5 C-4.23238281 6.11375 -4.23238281 6.11375 -5.6171875 7.25 C-8 9 -8 9 -10 9 C-10.33 8.01 -10.66 7.02 -11 6 C-10.28972656 5.65066406 -9.57945312 5.30132813 -8.84765625 4.94140625 C-7.92855469 4.48636719 -7.00945313 4.03132812 -6.0625 3.5625 C-4.68771484 2.88380859 -4.68771484 2.88380859 -3.28515625 2.19140625 C-1.09471096 1.19474606 -1.09471096 1.19474606 0 0 Z " fill="#3E1607" transform="translate(530,608)"/>
<path d="M0 0 C0 3.93888754 -1.28743867 4.73545742 -3.9375 7.5625 C-6.80698827 10.54628746 -6.80698827 10.54628746 -9 14 C-9.66 13.67 -10.32 13.34 -11 13 C-7.61227103 8.30840284 -4.21814817 3.9700218 0 0 Z " fill="#EBC460" transform="translate(189,210)"/>
<path d="M0 0 C0 0.99 0 1.98 0 3 C-0.99 3.495 -0.99 3.495 -2 4 C-1.67 4.66 -1.34 5.32 -1 6 C-3.3125 6.625 -3.3125 6.625 -6 7 C-6.99 6.34 -7.98 5.68 -9 5 C-6.03 3.35 -3.06 1.7 0 0 Z " fill="#EA6D32" transform="translate(764,416)"/>
<path d="M0 0 C-1.97420135 2.52259061 -2.96745642 2.9929808 -6.1875 3.6875 C-7.5796875 3.8421875 -7.5796875 3.8421875 -9 4 C-9 3.34 -9 2.68 -9 2 C-9.99 1.67 -10.98 1.34 -12 1 C-7.93631321 0.22596442 -4.13574827 -0.0984702 0 0 Z " fill="#2F2414" transform="translate(365,565)"/>
<path d="M0 0 C0.25532751 3.06393013 0.21861333 4.63233212 -1.375 7.3125 C-2.179375 8.1478125 -2.179375 8.1478125 -3 9 C-3.66 9 -4.32 9 -5 9 C-4.6875 5.625 -4.6875 5.625 -4 2 C-1 0 -1 0 0 0 Z " fill="#DF4916" transform="translate(575,388)"/>
<path d="M0 0 C-0.66 0.66 -1.32 1.32 -2 2 C-1.34 2.66 -0.68 3.32 0 4 C-2.64 4 -5.28 4 -8 4 C-8 3.01 -8 2.02 -8 1 C-5.29120665 -0.35439668 -2.99066732 -0.06501451 0 0 Z " fill="#FA7229" transform="translate(417,309)"/>
<path d="M0 0 C1.258125 0.12375 2.51625 0.2475 3.8125 0.375 C4.87404297 0.47941406 4.87404297 0.47941406 5.95703125 0.5859375 C8 1 8 1 11 3 C9.88625 2.979375 8.7725 2.95875 7.625 2.9375 C4.16784079 2.73619282 4.16784079 2.73619282 2 4 C1.34 3.67 0.68 3.34 0 3 C0 2.01 0 1.02 0 0 Z " fill="#FDE49E" transform="translate(358,527)"/>
<path d="M0 0 C-1.1875 2 -1.1875 2 -3 4 C-5.6875 4.25 -5.6875 4.25 -8 4 C-8 3.01 -8 2.02 -8 1 C-5.29120665 -0.35439668 -2.99066732 -0.06501451 0 0 Z " fill="#F8C460" transform="translate(395,576)"/>
<path d="M0 0 C2.97 0.495 2.97 0.495 6 1 C4.68 2.32 3.36 3.64 2 5 C1.01 4.34 0.02 3.68 -1 3 C-0.67 2.01 -0.34 1.02 0 0 Z " fill="#2E0907" transform="translate(631,365)"/>
<path d="M0 0 C0.33 0 0.66 0 1 0 C1.02725341 1.7290774 1.04650987 3.45828176 1.0625 5.1875 C1.07410156 6.15042969 1.08570313 7.11335937 1.09765625 8.10546875 C1.00486622 10.85576513 0.62111685 13.32479591 0 16 C-2.38825352 12.35570204 -1.94295451 9.9306564 -1.125 5.75 C-0.92132812 4.67234375 -0.71765625 3.5946875 -0.5078125 2.484375 C-0.34023438 1.66453125 -0.17265625 0.8446875 0 0 Z " fill="#C34615" transform="translate(778,604)"/>
<path d="M0 0 C0.33 0.99 0.66 1.98 1 3 C1.99 3.33 2.98 3.66 4 4 C3.67 4.66 3.34 5.32 3 6 C2.34 6 1.68 6 1 6 C1 8.31 1 10.62 1 13 C0.34 12.67 -0.32 12.34 -1 12 C-0.67 8.04 -0.34 4.08 0 0 Z " fill="#630D01" transform="translate(447,524)"/>
<path d="M0 0 C-1.26691507 0.67408308 -2.53870749 1.33900497 -3.8125 2 C-4.52019531 2.37125 -5.22789062 2.7425 -5.95703125 3.125 C-8 4 -8 4 -11 4 C-10.67 3.01 -10.34 2.02 -10 1 C-8.22265625 0.234375 -8.22265625 0.234375 -6.0625 -0.25 C-5.35222656 -0.42015625 -4.64195312 -0.5903125 -3.91015625 -0.765625 C-2 -1 -2 -1 0 0 Z " fill="#962306" transform="translate(507,620)"/>
<path d="M0 0 C3.63 0.66 7.26 1.32 11 2 C7 4 7 4 3.25 3.125 C2.1775 2.75375 1.105 2.3825 0 2 C0 1.34 0 0.68 0 0 Z " fill="#D9B662" transform="translate(242,497)"/>
<path d="M0 0 C0.66 0.33 1.32 0.66 2 1 C1.67 2.32 1.34 3.64 1 5 C-0.98 5.33 -2.96 5.66 -5 6 C-3.35 4.02 -1.7 2.04 0 0 Z " fill="#FB7A35" transform="translate(766,415)"/>
<path d="M0 0 C0.99 0 1.98 0 3 0 C3 2 3 2 0.625 4.625 C-2 7 -2 7 -4 7 C-2.92598892 4.08482708 -2.22189824 2.22189824 0 0 Z " fill="#E4BC58" transform="translate(156,343)"/>
<path d="M0 0 C-0.8125 1.9375 -0.8125 1.9375 -2 4 C-2.99 4.33 -3.98 4.66 -5 5 C-5.33 3.68 -5.66 2.36 -6 1 C-4 0 -4 0 0 0 Z " fill="#2E1405" transform="translate(418,616)"/>
<path d="M0 0 C-0.33 0.99 -0.66 1.98 -1 3 C-3.31 3 -5.62 3 -8 3 C-5.53387212 -0.1151089 -3.89156016 -0.31553191 0 0 Z " fill="#871905" transform="translate(782,311)"/>
<path d="M0 0 C3.32675402 3.32675402 3.72107514 4.44422733 4 9 C3.34 10.32 2.68 11.64 2 13 C1.34 8.71 0.68 4.42 0 0 Z " fill="#E5BF5B" transform="translate(172,281)"/>
<path d="M0 0 C0.66 0.33 1.32 0.66 2 1 C1 4 1 4 -2.0625 5.6875 C-3.031875 6.120625 -4.00125 6.55375 -5 7 C-3.70700306 4.11562221 -2.34058637 2.12780579 0 0 Z " fill="#E45113" transform="translate(758,615)"/>
<path d="M0 0 C1.98 0.66 3.96 1.32 6 2 C5.67 2.99 5.34 3.98 5 5 C3.02 4.01 1.04 3.02 -1 2 C-0.67 1.34 -0.34 0.68 0 0 Z " fill="#282217" transform="translate(285,428)"/>
<path d="M0 0 C1.5625 1.25 1.5625 1.25 3 3 C2.6875 5.1875 2.6875 5.1875 2 7 C0.68 6.01 -0.64 5.02 -2 4 C-1.34 4 -0.68 4 0 4 C0 2.68 0 1.36 0 0 Z " fill="#1F1A10" transform="translate(267,415)"/>
</svg>
